Coordinates
version=1
nRows=14
nColumns=40
inDegrees=yes

Units are S.I. units (second, meters, Newtons, ...)
If the header above contains a line with 'inDegrees', this indicates whether rotational values are in degrees (yes) or radians (no).

endheader
time	pelvis_tilt	pelvis_list	pelvis_rotation	pelvis_tx	pelvis_ty	pelvis_tz	hip_flexion_r	hip_adduction_r	hip_rotation_r	knee_angle_r	knee_angle_r_beta	ankle_angle_r	subtalar_angle_r	mtp_angle_r	hip_flexion_l	hip_adduction_l	hip_rotation_l	knee_angle_l	knee_angle_l_beta	ankle_angle_l	subtalar_angle_l	mtp_angle_l	lumbar_extension	lumbar_bending	lumbar_rotation	arm_flex_r	arm_add_r	arm_rot_r	elbow_flex_r	pro_sup_r	wrist_flex_r	wrist_dev_r	arm_flex_l	arm_add_l	arm_rot_l	elbow_flex_l	pro_sup_l	wrist_flex_l	wrist_dev_l
      4.16500000	    -24.66998758	     -7.78532755	     -2.74476510	     -0.36021936	      0.80936161	     -0.72781561	     68.38787889	     12.51378831	     -6.65684570	     71.03322125	      1.23976359	     23.41139329	      0.00000000	      0.00000000	     30.75789135	     -6.87915948	      6.76180022	     95.23449343	      1.66215547	     -6.82489291	      0.00000000	      0.00000000	    -18.55785213	      9.11075840	      7.42333967	     89.93618126	    -12.76017079	      9.98255473	     56.44470366	     86.59933602	      0.00000000	      0.00000000	     89.94189348	     -5.50332227	      8.78870929	     53.89450111	     85.52803976	      0.00000000	      0.00000000
      4.17000000	    -24.63510526	     -7.72741427	     -2.75839342	     -0.36013179	      0.81065021	     -0.72776947	     68.20306867	     12.45239829	     -6.65477111	     70.80276411	      1.23574135	     23.31978717	      0.00000000	      0.00000000	     30.75056575	     -6.87306877	      6.64346079	     95.20108243	      1.66157234	     -6.79740973	      0.00000000	      0.00000000	    -18.52683154	      9.05206501	      7.43153735	     89.93603312	    -12.77862229	      9.99058727	     56.43617406	     86.60046126	      0.00000000	      0.00000000	     89.94173723	     -5.51976975	      8.80875633	     53.87041186	     85.53016629	      0.00000000	      0.00000000
      4.17500000	    -24.54533057	     -7.73037414	     -2.72648534	     -0.35987443	      0.81231565	     -0.72780961	     67.88951523	     12.41371455	     -6.65744546	     70.44832260	      1.22955518	     23.15530675	      0.00000000	      0.00000000	     30.66333035	     -6.92721641	      6.59314431	     95.09755143	      1.65976538	     -6.80283527	      0.00000000	      0.00000000	    -18.57158519	      9.05577490	      7.42012453	     89.93565090	    -12.78679426	     10.02128212	     56.39008498	     86.60516179	      0.00000000	      0.00000000	     89.94158073	     -5.51489112	      8.85572097	     53.82397204	     85.53615101	      0.00000000	      0.00000000
      4.18000000	    -24.44282050	     -7.73285208	     -2.70222771	     -0.35963624	      0.81373886	     -0.72779162	     67.60895781	     12.37463140	     -6.69321398	     70.16919409	      1.22468347	     23.02385084	      0.00000000	      0.00000000	     30.55791112	     -6.96774908	      6.54802507	     95.04971512	      1.65893048	     -6.81359921	      0.00000000	      0.00000000	    -18.60496491	      9.06285709	      7.42574630	     89.93546457	    -12.80527961	     10.06438186	     56.34842316	     86.61336207	      0.00000000	      0.00000000	     89.94138311	     -5.52109378	      8.89592397	     53.77783496	     85.54109945	      0.00000000	      0.00000000
      4.18500000	    -24.36171136	     -7.73632911	     -2.65873265	     -0.35934794	      0.81526732	     -0.72787434	     67.32660952	     12.30778489	     -6.74361334	     69.86496575	      1.21937368	     22.89674605	      0.00000000	      0.00000000	     30.46856916	     -6.96208700	      6.53380487	     94.96005198	      1.65736556	     -6.82671893	      0.00000000	      0.00000000	    -18.62689388	      9.08277485	      7.41114791	     89.93522009	    -12.82881024	     10.09144849	     56.32692000	     86.61720567	      0.00000000	      0.00000000	     89.94116456	     -5.52961614	      8.94018557	     53.73409072	     85.54838983	      0.00000000	      0.00000000
      4.19000000	    -24.27272387	     -7.72440593	     -2.64279144	     -0.35915678	      0.81674103	     -0.72790286	     67.05403502	     12.25920157	     -6.77280034	     69.58305099	      1.21445334	     22.77442702	      0.00000000	      0.00000000	     30.39386825	     -6.96186540	      6.49721926	     94.92164458	      1.65669523	     -6.84009119	      0.00000000	      0.00000000	    -18.65376038	      9.08093357	      7.41601062	     89.93497256	    -12.83338337	     10.13989219	     56.27908591	     86.62328224	      0.00000000	      0.00000000	     89.94103985	     -5.53197363	      8.97338739	     53.70018668	     85.55283260	      0.00000000	      0.00000000
      4.19500000	    -24.20216420	     -7.70063472	     -2.64800436	     -0.35897151	      0.81815579	     -0.72783841	     66.80982242	     12.22762225	     -6.78528869	     69.29658765	      1.20945361	     22.64775320	      0.00000000	      0.00000000	     30.32006422	     -6.97422809	      6.41957218	     94.84784275	      1.65540714	     -6.85407068	      0.00000000	      0.00000000	    -18.65566567	      9.04636020	      7.42871729	     89.93478904	    -12.85581926	     10.16412025	     56.24915019	     86.62890519	      0.00000000	      0.00000000	     89.94091000	     -5.53862134	      9.02773139	     53.66819154	     85.55977345	      0.00000000	      0.00000000
      4.20000000	    -24.13978466	     -7.65139795	     -2.65174038	     -0.35878458	      0.81959087	     -0.72782227	     66.56871948	     12.17982784	     -6.76673875	     69.02194102	      1.20466013	     22.52225929	      0.00000000	      0.00000000	     30.26580272	     -6.95802196	      6.33441877	     94.79987202	      1.65456990	     -6.84305700	      0.00000000	      0.00000000	    -18.65446472	      9.00489718	      7.43515643	     89.93447718	    -12.85554608	     10.19388789	     56.22204029	     86.63114692	      0.00000000	      0.00000000	     89.94084225	     -5.57200022	      9.05525334	     53.63143975	     85.56326187	      0.00000000	      0.00000000
      4.20500000	    -24.09160771	     -7.59346717	     -2.66711502	     -0.35861764	      0.82094413	     -0.72780526	     66.34696816	     12.14057274	     -6.73020785	     68.75217574	      1.19995183	     22.39249821	      0.00000000	      0.00000000	     30.22126638	     -6.92892245	      6.25770681	     94.75604241	      1.65380493	     -6.83734138	      0.00000000	      0.00000000	    -18.63007413	      8.94150338	      7.43501993	     89.93429459	    -12.86402734	     10.22663074	     56.16544369	     86.63416610	      0.00000000	      0.00000000	     89.94063323	     -5.58937919	      9.09170321	     53.60511190	     85.56881886	      0.00000000	      0.00000000
      4.21000000	    -24.01347478	     -7.55230232	     -2.65179683	     -0.35837283	      0.82241217	     -0.72782771	     66.08105510	     12.08472607	     -6.71556832	     68.46452924	      1.19493146	     22.25592331	      0.00000000	      0.00000000	     30.14148899	     -6.91768146	      6.18803846	     94.68571732	      1.65257752	     -6.83638618	      0.00000000	      0.00000000	    -18.63622550	      8.90517553	      7.42032752	     89.93394737	    -12.86349425	     10.26496388	     56.12906161	     86.63865262	      0.00000000	      0.00000000	     89.94052573	     -5.60761092	      9.13962615	     53.56881342	     85.57462832	      0.00000000	      0.00000000
      4.21500000	    -23.94985347	     -7.52109662	     -2.63083540	     -0.35815078	      0.82378520	     -0.72787513	     65.84334277	     12.02932255	     -6.71179692	     68.19518503	      1.19023051	     22.12901568	      0.00000000	      0.00000000	     30.08159454	     -6.90080376	      6.14233925	     94.63934367	      1.65176815	     -6.84109043	      0.00000000	      0.00000000	    -18.61873246	      8.88122894	      7.40178109	     89.93360322	    -12.87593356	     10.29307303	     56.07146399	     86.63909062	      0.00000000	      0.00000000	     89.94038772	     -5.62272111	      9.17777133	     53.53912667	     85.57959315	      0.00000000	      0.00000000
      4.22000000	    -23.79444873	     -7.55187296	     -2.59370554	     -0.35774077	      0.82536886	     -0.72786295	     65.48112220	     12.02487727	     -6.74417222	     67.87203994	      1.18459057	     21.96597191	      0.00000000	      0.00000000	     29.89459463	     -6.94253404	      6.13879803	     94.55397989	      1.65027827	     -6.88237437	      0.00000000	      0.00000000	    -18.70512124	      8.91753743	      7.38078476	     89.93336602	    -12.87195908	     10.35992390	     56.00743361	     86.64435057	      0.00000000	      0.00000000	     89.94031337	     -5.64697007	      9.22865555	     53.50490088	     85.58642175	      0.00000000	      0.00000000
      4.22500000	    -23.60036057	     -7.65665660	     -2.58574502	     -0.35728814	      0.82703381	     -0.72778988	     65.06899423	     12.09863668	     -6.81074427	     67.54602970	      1.17890061	     21.80140977	      0.00000000	      0.00000000	     29.67077396	     -7.11751536	      6.11833261	     94.47176950	      1.64884343	     -6.93147266	      0.00000000	      0.00000000	    -18.84356542	      9.02907193	      7.40768640	     89.93321415	    -12.85495198	     10.39937311	     55.96010107	     86.64466859	      0.00000000	      0.00000000	     89.94011004	     -5.73366365	      9.27829431	     53.50355277	     85.59411960	      0.00000000	      0.00000000
      4.23000000	    -23.57928871	     -7.58351260	     -2.55260986	     -0.35718010	      0.82829394	     -0.72784967	     64.89986776	     11.98074549	     -6.83071795	     67.31449865	      1.17485964	     21.73171087	      0.00000000	      0.00000000	     29.70442189	     -7.06459465	      6.06648225	     94.47674849	      1.64893033	     -6.90710099	      0.00000000	      0.00000000	    -18.78712868	      8.95879650	      7.36961624	     89.93290681	    -12.86845867	     10.40352326	     55.94984939	     86.64197207	      0.00000000	      0.00000000	     89.93994766	     -5.72278398	      9.30350659	     53.49390789	     85.59720771	      0.00000000	      0.00000000
